<svg width="100%" viewBox="0 0 680 620" xmlns="http://www.w3.org/2000/svg" style="font-family: Arial, sans-serif;">
  <defs>
    <marker id="arrow" viewBox="0 0 10 10" refX="8" refY="5" markerWidth="6" markerHeight="6" orient="auto-start-reverse">
      <path d="M2 1L8 5L2 9" fill="none" stroke="context-stroke" stroke-width="1.5" stroke-linecap="round" stroke-linejoin="round"/>
    </marker>
  </defs>

  <!-- End customer -->
  <rect x="40" y="40" width="160" height="64" rx="8" fill="#E1F5EE" stroke="#0F6E56" stroke-width="0.5"/>
  <text x="120" y="65" text-anchor="middle" dominant-baseline="central" font-size="14" font-weight="500" fill="#085041">End customer</text>
  <text x="120" y="85" text-anchor="middle" dominant-baseline="central" font-size="12" fill="#0F6E56">Household or business</text>

  <!-- Energy retailer -->
  <rect x="480" y="40" width="160" height="64" rx="8" fill="#E1F5EE" stroke="#0F6E56" stroke-width="0.5"/>
  <text x="560" y="65" text-anchor="middle" dominant-baseline="central" font-size="14" font-weight="500" fill="#085041">Energy retailer</text>
  <text x="560" y="85" text-anchor="middle" dominant-baseline="central" font-size="12" fill="#0F6E56">Licenced supplier</text>

  <!-- Arrow: tokens customer -> retailer -->
  <line x1="200" y1="65" x2="478" y2="65" stroke="#1D9E75" stroke-width="1.2" marker-end="url(#arrow)"/>
  <rect x="265" y="48" width="150" height="20" rx="4" fill="white"/>
  <text x="340" y="62" text-anchor="middle" font-size="11" fill="#085041">BSSZ tokens (monthly settlement)</text>

  <!-- Arrow: energy retailer -> customer -->
  <line x1="478" y1="88" x2="202" y2="88" stroke="#888780" stroke-width="1" marker-end="url(#arrow)" stroke-dasharray="4 3"/>
  <rect x="265" y="91" width="150" height="20" rx="4" fill="white"/>
  <text x="340" y="105" text-anchor="middle" font-size="11" fill="#5F5E5A">Energy delivery (physical)</text>

  <!-- BlackSlon Protocol -->
  <rect x="220" y="200" width="240" height="80" rx="10" fill="#EEEDFE" stroke="#534AB7" stroke-width="0.5"/>
  <text x="340" y="228" text-anchor="middle" dominant-baseline="central" font-size="14" font-weight="500" fill="#26215C">BlackSlon Protocol</text>
  <text x="340" y="248" text-anchor="middle" dominant-baseline="central" font-size="12" fill="#534AB7">Issues tokens · holds reserves</text>
  <text x="340" y="264" text-anchor="middle" dominant-baseline="central" font-size="12" fill="#534AB7">Redeems · maintains corridor</text>

  <!-- Arrow: customer buys tokens from BS -->
  <path d="M120 104 L120 160 L280 160 L280 199" fill="none" stroke="#1D9E75" stroke-width="1.2" marker-end="url(#arrow)"/>
  <rect x="50" y="148" width="150" height="20" rx="4" fill="white"/>
  <text x="125" y="162" text-anchor="middle" font-size="11" fill="#085041">Buys BSSZ tokens at BSEI</text>

  <!-- Arrow: retailer redeems tokens at BS -->
  <path d="M560 104 L560 160 L400 160 L400 199" fill="none" stroke="#534AB7" stroke-width="1.2" marker-end="url(#arrow)"/>
  <rect x="460" y="148" width="160" height="20" rx="4" fill="white"/>
  <text x="540" y="162" text-anchor="middle" font-size="11" fill="#3C3489">Redeems tokens → EUR T+2</text>

  <!-- BSEI index -->
  <rect x="40" y="370" width="180" height="64" rx="8" fill="#FAEEDA" stroke="#BA7517" stroke-width="0.5"/>
  <text x="130" y="395" text-anchor="middle" dominant-baseline="central" font-size="14" font-weight="500" fill="#412402">BSEI index</text>
  <text x="130" y="415" text-anchor="middle" dominant-baseline="central" font-size="12" fill="#854F0B">TTF / EPEX Cal+2 feed</text>

  <!-- Prime broker -->
  <rect x="460" y="370" width="180" height="64" rx="8" fill="#FAECE7" stroke="#993C1D" stroke-width="0.5"/>
  <text x="550" y="395" text-anchor="middle" dominant-baseline="central" font-size="14" font-weight="500" fill="#4A1B0C">Prime broker</text>
  <text x="550" y="415" text-anchor="middle" dominant-baseline="central" font-size="12" fill="#993C1D">StoneX / delta hedge</text>

  <!-- Arrow: BSEI -> BS -->
  <path d="M220 370 L280 350 L280 282" fill="none" stroke="#BA7517" stroke-width="1" marker-end="url(#arrow)"/>
  <rect x="148" y="338" width="148" height="20" rx="4" fill="white"/>
  <text x="222" y="352" text-anchor="middle" font-size="11" fill="#854F0B">Anchors pricing corridor</text>

  <!-- Arrow: prime broker -> BS -->
  <path d="M460 370 L400 350 L400 282" fill="none" stroke="#993C1D" stroke-width="1" marker-end="url(#arrow)"/>
  <rect x="382" y="338" width="150" height="20" rx="4" fill="white"/>
  <text x="457" y="352" text-anchor="middle" font-size="11" fill="#712B13">Delta reported · hedged</text>

  <!-- Proof of Reserve -->
  <rect x="220" y="510" width="240" height="64" rx="8" fill="#F1EFE8" stroke="#5F5E5A" stroke-width="0.5"/>
  <text x="340" y="535" text-anchor="middle" dominant-baseline="central" font-size="14" font-weight="500" fill="#2C2C2A">Proof of Reserve</text>
  <text x="340" y="555" text-anchor="middle" dominant-baseline="central" font-size="12" fill="#5F5E5A">On-chain · real-time · public</text>

  <!-- Arrow: BS -> PoR -->
  <path d="M340 282 L340 510" fill="none" stroke="#888780" stroke-width="1" stroke-dasharray="4 3" marker-end="url(#arrow)"/>
  <rect x="254" y="385" width="170" height="20" rx="4" fill="white"/>
  <text x="340" y="399" text-anchor="middle" font-size="11" fill="#5F5E5A">100% collateral verified</text>

  <!-- Legend -->
  <line x1="40" y1="598" x2="70" y2="598" stroke="#1D9E75" stroke-width="1.5" marker-end="url(#arrow)"/>
  <text x="78" y="602" font-size="11" fill="#444441">Token / fiat flow</text>
  <line x1="200" y1="598" x2="230" y2="598" stroke="#888780" stroke-width="1" stroke-dasharray="4 3" marker-end="url(#arrow)"/>
  <text x="238" y="602" font-size="11" fill="#444441">Physical / data flow</text>
  <line x1="380" y1="598" x2="410" y2="598" stroke="#888780" stroke-width="1" stroke-dasharray="4 3" marker-end="url(#arrow)"/>
  <text x="418" y="602" font-size="11" fill="#444441">Reserve verification</text>
</svg>
